<?xml version="1.0" encoding="UTF-8"?>
<svg xmlns="http://www.w3.org/2000/svg" xmlns:xlink="http://www.w3.org/1999/xlink" viewBox="0 0 256 256" width="256px" height="256px">
<g id="surface28460979">
<path style=" stroke:none;fill-rule:nonzero;fill:rgb(100%,56.862748%,0%);fill-opacity:1;" d="M 40 142.667969 C 40 85.964844 85.964844 40 142.667969 40 C 196.890625 40 241.1875 82.070312 244.964844 135.332031 C 245.117188 132.894531 245.332031 130.476562 245.332031 128 C 245.332031 63.195312 192.804688 10.667969 128 10.667969 C 63.195312 10.667969 10.667969 63.195312 10.667969 128 C 10.667969 192.804688 63.195312 245.332031 128 245.332031 C 130.476562 245.332031 132.894531 245.117188 135.332031 244.964844 C 82.070312 241.1875 40 196.890625 40 142.667969 Z M 40 142.667969 "/>
<path style=" stroke:none;fill-rule:nonzero;fill:rgb(100%,56.862748%,0%);fill-opacity:1;" d="M 201.332031 151.464844 C 180.273438 151.464844 163.199219 134.394531 163.199219 113.332031 C 163.199219 97.863281 172.429688 84.574219 185.664062 78.597656 C 174.585938 72.699219 161.957031 69.332031 148.535156 69.332031 C 104.792969 69.332031 69.332031 104.792969 69.332031 148.535156 C 69.332031 192.273438 104.792969 227.734375 148.535156 227.734375 C 192.273438 227.734375 227.734375 192.273438 227.734375 148.535156 C 227.734375 146.039062 227.585938 143.582031 227.359375 141.148438 C 220.539062 147.53125 211.40625 151.464844 201.332031 151.464844 Z M 201.332031 151.464844 "/>
</g>
</svg>
